<svg width="75" height="75" viewBox="0 0 75 75" fill="none" xmlns="http://www.w3.org/2000/svg">
<path d="M75 37.5C75 58.2107 58.2107 75 37.5 75C16.7893 75 0 58.2107 0 37.5C0 16.7893 16.7893 0 37.5 0C58.2107 0 75 16.7893 75 37.5Z" fill="#E1BF23"/>
<path fill-rule="evenodd" clip-rule="evenodd" d="M37.5 75C16.7894 75 0 58.2106 0 37.5C0 16.7894 16.7894 0 37.5 0C58.2106 0 75 16.7894 75 37.5C75 58.2106 58.2106 75 37.5 75ZM38.7361 58.3633C51.0305 58.3583 61.0297 48.3567 61.0345 36.0648C61.037 30.1067 58.7197 24.5044 54.5097 20.2897C50.2997 16.0748 44.7009 13.7526 38.7358 13.75C26.445 13.75 16.4419 23.7527 16.4369 36.0472C16.4353 39.9773 17.462 43.8133 19.4134 47.195L16.25 58.75L28.0708 55.6492C31.3278 57.4256 34.9948 58.362 38.7269 58.3633H38.7361Z" fill="#0B2447"/>
<path fill-rule="evenodd" clip-rule="evenodd" d="M28.6186 51.6124L21.6039 53.4526L23.4763 46.6132L23.0356 45.912C21.1803 42.9612 20.2005 39.5507 20.2019 36.0487C20.2059 25.83 28.5202 17.5164 38.7434 17.5164C43.6937 17.5181 48.3472 19.4484 51.8464 22.9517C55.3456 26.455 57.2716 31.1114 57.2697 36.0637C57.2655 46.2832 48.9514 54.5976 38.7361 54.5976H38.7286C35.4028 54.5962 32.1409 53.7028 29.2953 52.0142L28.6186 51.6124ZM49.97 41.3675C49.8308 41.1351 49.4594 40.9957 48.9022 40.7167C48.345 40.4378 45.6058 39.0901 45.095 38.904C44.5844 38.7181 44.2127 38.6253 43.8414 39.1828C43.47 39.7406 42.4022 40.9957 42.0772 41.3675C41.7522 41.7393 41.427 41.7859 40.8702 41.507C40.313 41.2281 38.5177 40.6398 36.3895 38.7415C34.7331 37.264 33.6148 35.4396 33.2898 34.8818C32.9648 34.324 33.2553 34.0225 33.5342 33.7446C33.7848 33.495 34.0914 33.0937 34.37 32.7685C34.6486 32.4432 34.7414 32.2107 34.927 31.8392C35.1128 31.4671 35.02 31.1418 34.8806 30.8629C34.7414 30.584 33.627 27.8415 33.1628 26.7259C32.7105 25.6395 32.2512 25.7867 31.9092 25.7695C31.5845 25.7532 31.2128 25.7498 30.8414 25.7498C30.47 25.7498 29.8662 25.8892 29.3556 26.447C28.8448 27.0048 27.4055 28.3528 27.4055 31.0951C27.4055 33.8376 29.402 36.487 29.6806 36.8589C29.9592 37.2307 33.6094 42.8584 39.1986 45.2718C40.528 45.8459 41.5656 46.1887 42.375 46.4454C43.7097 46.8696 44.9244 46.8098 45.8842 46.6662C46.9548 46.5064 49.1806 45.3185 49.6452 44.0171C50.1092 42.7154 50.1092 41.5998 49.97 41.3675Z" fill="#0B2447"/>
</svg>
