<svg width="197" height="70" viewBox="0 0 197 70" fill="none" xmlns="http://www.w3.org/2000/svg">
<path d="M16.249 -1.14441e-05C22.573 -1.14441e-05 28.9024 3.05011 30.7248 10.4708H24.0353C22.442 7.37703 19.8939 6.14389 16.2545 6.14389C10.2907 6.14389 6.92406 10.6509 6.92406 16.3419C6.92406 22.3985 10.5635 26.4907 16.2545 26.4907C20.6251 26.4907 23.8116 25.1703 25.1757 20.3905H16.4836V14.6559H31.4123C31.5924 17.706 31.5051 20.6633 30.4575 23.577C28.0457 29.9938 22.3547 32.6783 16.2545 32.6783C7.83528 32.6783 0.00535867 26.9 0.00535867 16.3364C-9.772e-05 5.77831 7.87347 -1.14441e-05 16.249 -1.14441e-05Z" fill="white"/>
<path d="M41.7796 26.9927L39.3242 32.2745H32.22V31.3633L46.8759 0.136358H50.0187L64.5818 31.3633V32.2745H57.5267L55.0222 26.9927H41.7796ZM44.0113 21.258H52.8397L48.4255 10.7436L44.0113 21.258Z" fill="white"/>
<path d="M88.4317 15.7471C91.3891 16.9748 92.9823 19.572 92.9823 22.8458C92.9823 28.4441 89.2502 32.269 82.8771 32.269H68.0848V0.452839H81.6057C87.4332 0.452839 91.6182 3.91218 91.6182 9.87602C91.6182 12.2004 90.4342 14.5194 88.4317 15.7471ZM74.8671 6.28026V13.5154H81.1038C83.4282 13.5154 84.885 12.2386 84.9287 10.0997C84.9723 7.78076 83.4718 6.2748 81.1038 6.2748H74.8671V6.28026ZM74.8671 19.07V26.3543H82.4242C84.7432 26.3543 86.1127 24.9902 86.2491 22.8513C86.2928 21.5745 85.7962 20.3959 84.8414 19.7084C84.0666 19.1628 83.1554 19.07 82.1077 19.07H74.8671Z" fill="white"/>
<path d="M125.022 31.2705V32.2254H117.738L111.185 21.7109H105.499V32.2254H98.6733V0.365535C103.224 0.365535 107.731 0.321884 112.282 0.365535C119.566 0.365535 123.527 5.64731 123.527 11.2892C123.527 15.3379 121.481 18.89 117.836 20.6633L125.022 31.2705ZM112.232 16.1127C115.103 16.1127 116.969 13.881 116.92 11.1528C116.92 8.46827 115.146 6.32936 112.232 6.32936H105.407V16.1127H112.232Z" fill="white"/>
<path d="M144.272 26.8563V32.2745H128.432V26.8563H132.939V5.69096H128.798V0.409176H143.907V5.69096H139.765V26.8563H144.272Z" fill="white"/>
<path d="M169.53 6.37302H156.877V12.8388H168.711V18.8027H156.877V26.087H169.896V32.2799H150.001V0.420101H169.53V6.37302Z" fill="white"/>
<path d="M182.865 26.1742H196.157V32.2745H176.039V0.414639H182.865V26.1742Z" fill="white"/>
<path d="M13.51 44.8624V40.8683H8.61019V44.8624H8.03181V36.7324H8.61019V40.3227H13.51V36.7324H14.1048V44.8624H13.51Z" fill="white"/>
<path d="M38.533 37.2453H34.4189V40.4045H38.3584V40.9283H34.4189V44.3331H38.5658V44.8678H33.8351V36.7378H38.5276V37.2453H38.533Z" fill="white"/>
<path d="M58.4161 37.9982L58.4761 40.7755V44.8624H57.8814V36.7214H58.1106L63.6761 43.5638L63.616 40.6118V36.7214H64.2108V44.8624H64.0144L58.4161 37.9982Z" fill="white"/>
<path d="M90.145 44.7696V44.8624H89.4957L87.0076 41.7631H84.5468V44.8624H83.952V36.7324H87.0786C88.6609 36.7324 89.8068 37.7636 89.8068 39.2641C89.8068 40.6119 88.8682 41.5067 87.6133 41.6922L90.145 44.7696ZM87.0786 41.2502C88.2626 41.2502 89.2393 40.4973 89.2393 39.2532C89.2393 38.031 88.2844 37.2562 87.0786 37.2562H84.5359V41.2502H87.0786Z" fill="white"/>
<path d="M112.042 44.3877V44.8624H108.369V44.3877H109.914V37.2071H108.473V36.7324H111.932V37.2071H110.492V44.3877H112.042Z" fill="white"/>
<path d="M138.396 45.0042H137.839L137.119 44.0166C136.41 44.6223 135.482 44.9715 134.413 44.9551C132.077 44.9551 130.326 43.2582 130.326 40.7755C130.326 38.3256 132.023 36.596 134.44 36.596C136.775 36.596 138.554 38.282 138.554 40.7755C138.554 41.9487 138.172 42.9472 137.523 43.6565L138.407 44.9115V45.0042H138.396ZM134.44 44.4095C136.475 44.4095 137.97 42.9472 137.97 40.7755C137.97 38.6366 136.47 37.1634 134.44 37.1634C132.432 37.1634 130.921 38.6366 130.921 40.7755C130.921 42.9472 132.427 44.4095 134.44 44.4095Z" fill="white"/>
<path d="M157.673 42.0742V36.7324H158.252V42.0633C158.252 43.5638 159.261 44.4204 160.723 44.4204C162.175 44.4204 163.173 43.5583 163.173 42.0633V36.7324H163.741V42.0742C163.741 43.8857 162.497 44.966 160.723 44.966C158.939 44.966 157.673 43.8857 157.673 42.0742Z" fill="white"/>
<path d="M188.098 37.2453H183.984V40.4045H187.924V40.9283H183.984V44.3331H188.131V44.8678H183.406V36.7378H188.098V37.2453Z" fill="white"/>
<path d="M194.52 70H1.63692C0.731156 70 0 69.2688 0 68.363V50.5316C0 49.6258 0.731156 48.8947 1.63692 48.8947H194.515C195.421 48.8947 196.152 49.6258 196.152 50.5316V68.363C196.157 69.2688 195.421 70 194.52 70Z" fill="white"/>
<path d="M13.2318 60.4185H7.91185V65.5639H6.44408V53.3579H13.7011V54.6511H7.91185V59.1308H13.2318V60.4185Z" fill="black"/>
<path d="M44.3987 54.662V53.3525H53.3472V54.662H49.5823V65.5639H48.1691V54.662H44.3987Z" fill="black"/>
<path d="M68.2486 65.7549C64.811 65.7549 62.0774 63.3486 62.0774 59.4582C62.0774 55.5514 64.8492 53.1452 68.2704 53.1452C71.6861 53.1452 74.4634 55.5842 74.4634 59.4582C74.4579 63.1522 71.9316 65.7549 68.2486 65.7549ZM68.2486 64.4071C70.9331 64.4071 72.9902 62.421 72.9902 59.4528C72.9902 56.4845 70.9658 54.4656 68.2649 54.4656C65.6131 54.4656 63.5397 56.4517 63.5397 59.4528C63.5397 62.421 65.5804 64.4071 68.2486 64.4071Z" fill="black"/>
<path d="M90.3033 53.1779C92.6932 53.1779 95.0286 54.2964 95.727 56.8391H94.2974C93.6536 55.0767 92.1367 54.5038 90.3033 54.5038C87.4606 54.5038 85.6818 56.6645 85.6818 59.4364C85.6818 62.2792 87.4606 64.3744 90.3033 64.3744C92.8133 64.3744 94.6084 63.0321 94.8376 60.3803H90.4943V59.1417H96.1799C96.2344 60.2603 96.1089 61.3407 95.7106 62.3174C94.8048 64.5654 92.7642 65.7331 90.3033 65.7331C86.8494 65.7331 84.2195 63.2231 84.2195 59.4364C84.2195 55.6496 86.904 53.1779 90.3033 53.1779Z" fill="black"/>
<path d="M116.107 65.3511V65.5585H114.573L111.19 61.0787H107.998V65.5585H106.531V53.3361H111.398C113.908 53.3361 115.566 55.044 115.566 57.2593C115.566 59.1417 114.361 60.4676 112.653 60.8878L116.107 65.3511ZM111.398 59.8783C112.947 59.8783 114.153 58.8307 114.153 57.2429C114.153 55.6715 112.985 54.6293 111.398 54.6293H107.982V59.8783H111.398Z" fill="black"/>
<path d="M127.75 62.5465L126.321 65.5639H124.804V65.3729L130.49 53.3034H131.15L136.781 65.3729V65.5639H135.28L133.851 62.5465H127.75ZM128.236 61.2861H133.365L130.801 55.5842L128.236 61.2861Z" fill="black"/>
<path d="M153.379 60.4185H148.059V65.5639H146.591V53.3579H153.848V54.6511H148.059V59.1308H153.379V60.4185Z" fill="black"/>
<path d="M168.908 64.3908V65.5585H163.223V64.3908H165.334V54.5038H163.364V53.3525H168.772V54.5038H166.802V64.3908H168.908Z" fill="black"/>
<path d="M180.677 62.5465L179.248 65.5639H177.731V65.3729L183.417 53.3034H184.077L189.708 65.3729V65.5639H188.207L186.778 62.5465H180.677ZM181.163 61.2861H186.292L183.728 55.5842L181.163 61.2861Z" fill="black"/>
<path d="M25.8471 57.603C25.6725 57.9468 25.547 58.3233 25.476 58.7216C25.4542 58.8471 25.4378 58.9671 25.4269 59.0926C25.3942 59.5073 25.4269 59.9165 25.5088 60.3039C25.6015 60.7241 25.7543 61.1224 25.9671 61.488L28.8262 58.1323L25.8471 57.603Z" fill="black"/>
<path d="M29.8248 56.8719L29.6611 56.4081L29.2846 55.355C28.3297 55.4041 27.4403 55.7915 26.7528 56.4081C26.4309 56.7027 26.1526 57.0465 25.9344 57.4339L29.8139 58.1214L30.2995 58.2087L29.8248 56.8719Z" fill="black"/>
<path d="M33.0222 57.3793L31.729 58.8962L30.1631 60.7295L31.729 61.0078L33.1477 61.2588C33.3223 60.9151 33.4478 60.5386 33.5187 60.1403C33.6879 59.1527 33.4914 58.1814 33.0222 57.3793Z" fill="black"/>
<path d="M31.729 56.0152C31.2816 55.7205 30.7687 55.5078 30.2067 55.4095C29.9612 55.3659 29.7156 55.3441 29.4755 55.3495L30.9651 59.5182L31.729 58.6179L32.924 57.2156C32.6184 56.7409 32.2092 56.3317 31.729 56.0152Z" fill="black"/>
<path d="M28.7553 61.3134L28.0296 59.3436L26.0653 61.6462C26.3436 62.0718 26.6983 62.4428 27.1129 62.7429C27.5931 63.0921 28.1551 63.3377 28.7826 63.4468C29.0445 63.4905 29.3064 63.5123 29.5629 63.5068L28.7553 61.3134Z" fill="black"/>
<path d="M31.729 61.1933L29.1209 60.735L28.7117 60.6641L28.8863 61.1333L29.7593 63.5068C30.4741 63.4632 31.1507 63.2286 31.7345 62.8466C32.2801 62.4919 32.7385 62.0063 33.0604 61.428L31.729 61.1933Z" fill="black"/>
<path d="M29.4973 65.924C25.9179 65.924 23.0042 63.0103 23.0042 59.4364C23.0042 55.857 25.9179 52.9433 29.4973 52.9433C33.0767 52.9433 35.9904 55.857 35.9904 59.4364C35.9849 63.0103 33.0767 65.924 29.4973 65.924ZM29.4973 53.8272C26.409 53.8272 23.8936 56.3426 23.8936 59.4309C23.8936 62.5192 26.409 65.0346 29.4973 65.0346C32.5856 65.0346 35.101 62.5192 35.101 59.4309C35.101 56.3426 32.5856 53.8272 29.4973 53.8272Z" fill="black" stroke="black" stroke-width="0.3" stroke-miterlimit="10"/>
</svg>
