<svg width="63" height="34" viewBox="0 0 63 34" fill="none" xmlns="http://www.w3.org/2000/svg">
<path d="M22.2313 16.3764C21.8278 17.1611 21.5337 18.0149 21.3684 18.9252C21.3169 19.2056 21.2804 19.486 21.2568 19.7664C21.1752 20.7122 21.2504 21.6371 21.45 22.5265C21.6646 23.4786 22.0231 24.3889 22.5189 25.2175L29.1967 17.5755L22.2313 16.3764Z" fill="white"/>
<path d="M31.5258 14.7129L31.1394 13.6603L30.2593 11.2559C28.0291 11.3668 25.9513 12.2436 24.3522 13.6603C23.5987 14.3257 22.9505 15.1104 22.4418 15.9935L31.5086 17.5546L32.6377 17.7492L31.5258 14.7129Z" fill="white"/>
<path d="M38.9978 15.8658L35.9734 19.3249L32.3179 23.5037L35.9734 24.1315L39.2833 24.7007C39.6868 23.9159 39.9809 23.0622 40.1462 22.1519C40.5519 19.9024 40.0925 17.6968 38.9978 15.8658Z" fill="white"/>
<path d="M35.9712 12.7626C34.9237 12.093 33.726 11.6117 32.4123 11.3857C31.837 11.2873 31.2661 11.2413 30.7015 11.2434L34.1789 20.7352L35.9691 18.6887L38.7617 15.4955C38.0447 14.4115 37.096 13.4803 35.9712 12.7626Z" fill="white"/>
<path d="M29.0293 24.8262L27.3357 20.3398L22.7529 25.5837C23.3969 26.5526 24.2297 27.398 25.2042 28.0801C26.329 28.869 27.6448 29.4382 29.1002 29.6893C29.7119 29.794 30.3194 29.84 30.9204 29.8295L29.0293 24.8262Z" fill="white"/>
<path d="M35.9712 24.5521L29.8751 23.5037L28.9177 23.3384L29.3234 24.4119L31.3647 29.8149C33.0347 29.7124 34.6167 29.1788 35.9733 28.3145C37.244 27.5047 38.3173 26.404 39.075 25.0857L35.9712 24.5521Z" fill="white"/>
<path d="M52.2353 1.64895V11.6786H43.4131V1.64895H35.9712V9.48561V11.5593C39.1759 13.3359 41.346 16.6945 41.346 20.5385C41.346 24.2968 39.2747 27.5905 36.188 29.3964C34.5996 30.3255 32.7407 30.8612 30.7573 30.8612C28.2523 30.8612 25.9513 30.0074 24.1353 28.5845C22.3173 27.1594 20.9907 25.1631 20.4455 22.8759C19.8745 23.0182 19.2477 23.0936 18.5587 23.1208C18.3634 23.1291 18.1659 23.1333 17.9598 23.1333C13.6089 23.1333 10.8442 20.1598 10.8442 15.5227C10.8442 11.3208 13.3663 7.79273 17.9598 7.79273C20.6065 7.79273 22.5705 8.83273 23.822 10.8458C25.7044 9.55885 27.9647 8.76367 30.4074 8.65904C28.1643 3.69339 22.8668 1.29321 17.962 1.29321C10.724 1.29321 3.32495 6.04961 3.32495 15.5624C3.32495 25.0355 10.7261 29.7521 17.962 29.7521C19.3465 29.7521 20.7353 29.5952 22.0704 29.2645C24.3199 31.3927 27.383 32.7068 30.7573 32.7068C34.0629 32.7068 37.0702 31.445 39.3047 29.3943H43.4131V18.2953H52.2374V29.3943H59.6794V1.64686H52.2353V1.64895Z" fill="white"/>
<path d="M16.4595 13.6582V19.7622H20.1751C20.3404 17.4269 21.3041 15.3092 22.8003 13.6582H16.4595Z" fill="white"/>
</svg>
