<svg width="16" height="15" viewBox="0 0 16 15" fill="none" xmlns="http://www.w3.org/2000/svg">
<path d="M11.1611 9.62314L10.7562 10.0227C10.7562 10.0227 9.79385 10.9725 7.16719 8.3799C4.54054 5.78737 5.50284 4.83757 5.50284 4.83757L5.75777 4.58593C6.38586 3.96604 6.44506 2.97081 5.89706 2.24425L4.77622 0.758011C4.09802 -0.141251 2.78752 -0.260042 2.01017 0.507201L0.614976 1.88428C0.229536 2.26472 -0.0287571 2.75788 0.00256728 3.30496C0.0827005 4.70456 0.720629 7.71593 4.28031 11.2294C8.05519 14.9552 11.5971 15.1033 13.0456 14.9692C13.5037 14.9269 13.9021 14.6953 14.2232 14.3783L15.4859 13.1321C16.3383 12.2908 16.0979 10.8485 15.0074 10.26L13.3091 9.34361C12.5931 8.95723 11.7207 9.0707 11.1611 9.62314Z" fill="#0B2447"/>
</svg>
