<svg width="673" height="163" viewBox="0 0 673 163" fill="none" xmlns="http://www.w3.org/2000/svg">
<path d="M342.32 17.1001C353.91 17.1001 365.51 22.6901 368.85 36.2901H356.59C353.67 30.6201 349 28.3601 342.33 28.3601C331.4 28.3601 325.23 36.6201 325.23 47.0501C325.23 58.1501 331.9 65.6501 342.33 65.6501C350.34 65.6501 356.18 63.2301 358.68 54.4701H342.75V43.9601H370.11C370.44 49.5501 370.28 54.9701 368.36 60.3101C363.94 72.0701 353.51 76.9901 342.33 76.9901C326.9 76.9901 312.55 66.4001 312.55 47.0401C312.54 27.6901 326.97 17.1001 342.32 17.1001Z" fill="white"/>
<path d="M389.11 66.5601L384.61 76.2401H371.6V74.5701L398.46 17.3401H404.22L430.91 74.5701V76.2401H417.98L413.39 66.5601H389.11ZM393.2 56.0501H409.38L401.29 36.7801L393.2 56.0501Z" fill="white"/>
<path d="M474.61 45.9602C480.03 48.2102 482.95 52.9702 482.95 58.9702C482.95 69.2302 476.11 76.2402 464.43 76.2402H437.32V17.9302H462.1C472.78 17.9302 480.45 24.2702 480.45 35.2002C480.45 39.4502 478.28 43.7102 474.61 45.9602ZM449.75 28.6102V41.8702H461.18C465.44 41.8702 468.11 39.5302 468.19 35.6102C468.27 31.3602 465.52 28.6002 461.18 28.6002H449.75V28.6102ZM449.75 52.0502V65.4002H463.6C467.85 65.4002 470.36 62.9002 470.61 58.9802C470.69 56.6402 469.78 54.4802 468.03 53.2202C466.61 52.2202 464.94 52.0502 463.02 52.0502H449.75Z" fill="white"/>
<path d="M541.67 74.4002V76.1502H528.32L516.31 56.8802H505.88V76.1502H493.37V17.7602C501.71 17.7602 509.97 17.6802 518.31 17.7602C531.66 17.7602 538.92 27.4402 538.92 37.7802C538.92 45.2002 535.17 51.7102 528.49 54.9602L541.67 74.4002ZM518.23 46.6302C523.49 46.6302 526.91 42.5402 526.82 37.5402C526.82 32.6202 523.57 28.7002 518.23 28.7002H505.72V46.6302H518.23Z" fill="white"/>
<path d="M576.95 66.3101V76.2401H547.92V66.3101H556.18V27.5201H548.59V17.8401H576.28V27.5201H568.69V66.3101H576.95Z" fill="white"/>
<path d="M623.24 28.7701H600.05V40.6201H621.74V51.5501H600.05V64.9001H623.91V76.2401H587.45V17.8501H623.24V28.7701Z" fill="white"/>
<path d="M647.68 65.0601H672.04V76.2401H635.17V17.8501H647.68V65.0601Z" fill="white"/>
<path d="M337.29 99.3202V92.0002H328.31V99.3202H327.25V84.4202H328.31V91.0002H337.29V84.4202H338.38V99.3202H337.29Z" fill="white"/>
<path d="M383.15 85.3502H375.61V91.1402H382.83V92.1002H375.61V98.3402H383.21V99.3202H374.54V84.4202H383.14V85.3502H383.15Z" fill="white"/>
<path d="M419.6 86.7301L419.71 91.8201V99.3102H418.62V84.3901H419.04L429.24 96.9301L429.13 91.5201V84.3901H430.22V99.3102H429.86L419.6 86.7301Z" fill="white"/>
<path d="M477.75 99.1502V99.3202H476.56L472 93.6402H467.49V99.3202H466.4V84.4202H472.13C475.03 84.4202 477.13 86.3102 477.13 89.0602C477.13 91.5302 475.41 93.1702 473.11 93.5102L477.75 99.1502ZM472.13 92.6902C474.3 92.6902 476.09 91.3102 476.09 89.0302C476.09 86.7902 474.34 85.3702 472.13 85.3702H467.47V92.6902H472.13Z" fill="white"/>
<path d="M517.88 98.4402V99.3102H511.15V98.4402H513.98V85.2802H511.34V84.4102H517.68V85.2802H515.04V98.4402H517.88Z" fill="white"/>
<path d="M566.18 99.5701H565.16L563.84 97.7601C562.54 98.8701 560.84 99.5101 558.88 99.4801C554.6 99.4801 551.39 96.3701 551.39 91.8201C551.39 87.3301 554.5 84.1602 558.93 84.1602C563.21 84.1602 566.47 87.2501 566.47 91.8201C566.47 93.9701 565.77 95.8001 564.58 97.1001L566.2 99.4001V99.5701H566.18ZM558.93 98.4901C562.66 98.4901 565.4 95.8101 565.4 91.8301C565.4 87.9101 562.65 85.2101 558.93 85.2101C555.25 85.2101 552.48 87.9101 552.48 91.8301C552.47 95.8001 555.24 98.4901 558.93 98.4901Z" fill="white"/>
<path d="M601.51 94.2102V84.4202H602.57V94.1902C602.57 96.9402 604.42 98.5102 607.1 98.5102C609.76 98.5102 611.59 96.9302 611.59 94.1902V84.4202H612.63V94.2102C612.63 97.5302 610.35 99.5102 607.1 99.5102C603.83 99.5102 601.51 97.5302 601.51 94.2102Z" fill="white"/>
<path d="M657.27 85.3502H649.73V91.1402H656.95V92.1002H649.73V98.3402H657.33V99.3202H648.67V84.4202H657.27V85.3502Z" fill="white"/>
<path d="M669.03 145.38H315.54C313.88 145.38 312.54 144.04 312.54 142.38V109.7C312.54 108.04 313.88 106.7 315.54 106.7H669.03C670.69 106.7 672.03 108.04 672.03 109.7V142.38C672.03 144.04 670.69 145.38 669.03 145.38Z" fill="white"/>
<path d="M336.79 127.82H327.04V137.25H324.35V114.88H337.65V117.24H327.04V125.45H336.79V127.82Z" fill="black"/>
<path d="M393.91 117.27V114.87H410.31V117.27H403.41V137.25H400.82V117.27H393.91Z" fill="black"/>
<path d="M437.62 137.6C431.32 137.6 426.31 133.19 426.31 126.06C426.31 118.9 431.39 114.49 437.66 114.49C443.93 114.49 449.01 118.96 449.01 126.06C449 132.84 444.37 137.6 437.62 137.6ZM437.62 135.14C442.54 135.14 446.31 131.5 446.31 126.06C446.31 120.63 442.6 116.92 437.65 116.92C432.79 116.92 428.99 120.56 428.99 126.06C428.99 131.5 432.73 135.14 437.62 135.14Z" fill="black"/>
<path d="M478.04 114.56C482.42 114.56 486.7 116.61 487.98 121.27H485.36C484.18 118.04 481.4 116.99 478.04 116.99C472.83 116.99 469.57 120.95 469.57 126.04C469.57 131.25 472.83 135.09 478.04 135.09C482.64 135.09 485.93 132.63 486.35 127.77H478.39V125.5H488.81C488.91 127.55 488.68 129.53 487.95 131.32C486.29 135.44 482.55 137.58 478.04 137.58C471.71 137.58 466.89 132.98 466.89 126.04C466.89 119.1 471.81 114.56 478.04 114.56Z" fill="black"/>
<path d="M525.33 136.86V137.24H522.52L516.32 129.03H510.47V137.24H507.78V114.84H516.7C521.3 114.84 524.34 117.97 524.34 122.03C524.34 125.48 522.13 127.91 519 128.68L525.33 136.86ZM516.7 126.83C519.54 126.83 521.75 124.91 521.75 122C521.75 119.12 519.61 117.21 516.7 117.21H510.44V126.83H516.7Z" fill="black"/>
<path d="M546.67 131.72L544.05 137.25H541.27V136.9L551.69 114.78H552.9L563.22 136.9V137.25H560.47L557.85 131.72H546.67ZM547.56 129.42H556.96L552.26 118.97L547.56 129.42Z" fill="black"/>
<path d="M593.64 127.82H583.89V137.25H581.2V114.88H594.5V117.24H583.89V125.45H593.64V127.82Z" fill="black"/>
<path d="M622.1 135.11V137.25H611.68V135.11H615.55V116.99H611.94V114.88H621.85V116.99H618.24V135.11H622.1Z" fill="black"/>
<path d="M643.67 131.72L641.05 137.25H638.27V136.9L648.69 114.78H649.9L660.22 136.9V137.25H657.47L654.85 131.72H643.67ZM644.56 129.42H653.96L649.26 118.97L644.56 129.42Z" fill="black"/>
<path d="M359.91 122.66C359.59 123.29 359.36 123.98 359.23 124.71C359.19 124.94 359.16 125.16 359.14 125.39C359.08 126.15 359.14 126.9 359.29 127.61C359.46 128.38 359.74 129.11 360.13 129.78L365.37 123.63L359.91 122.66Z" fill="black"/>
<path d="M367.2 121.33L366.9 120.48L366.21 118.55C364.46 118.64 362.83 119.35 361.57 120.48C360.98 121.02 360.47 121.65 360.07 122.36L367.18 123.62L368.07 123.78L367.2 121.33Z" fill="black"/>
<path d="M373.06 122.25L370.69 125.03L367.82 128.39L370.69 128.9L373.29 129.36C373.61 128.73 373.84 128.04 373.97 127.31C374.28 125.5 373.92 123.73 373.06 122.25Z" fill="black"/>
<path d="M370.69 119.76C369.87 119.22 368.93 118.83 367.9 118.65C367.45 118.57 367 118.53 366.56 118.54L369.29 126.18L370.69 124.53L372.88 121.96C372.31 121.08 371.57 120.33 370.69 119.76Z" fill="black"/>
<path d="M365.24 129.47L363.91 125.86L360.31 130.08C360.82 130.86 361.47 131.54 362.23 132.09C363.11 132.73 364.14 133.18 365.29 133.38C365.77 133.46 366.25 133.5 366.72 133.49L365.24 129.47Z" fill="black"/>
<path d="M370.69 129.24L365.91 128.4L365.16 128.27L365.48 129.13L367.08 133.48C368.39 133.4 369.63 132.97 370.7 132.27C371.7 131.62 372.54 130.73 373.13 129.67L370.69 129.24Z" fill="black"/>
<path d="M366.6 113.97C359.96 113.97 354.55 119.37 354.55 126.02C354.55 132.66 359.95 138.06 366.6 138.06C373.24 138.06 378.64 132.66 378.64 126.02C378.64 119.37 373.24 113.97 366.6 113.97ZM376.72 126.02C376.72 131.6 372.18 136.14 366.6 136.14C361.02 136.14 356.48 131.6 356.48 126.02C356.48 120.44 361.02 115.9 366.6 115.9C372.18 115.89 376.72 120.43 376.72 126.02Z" fill="black"/>
<path d="M243.36 7.87994V55.8099H202.25V7.87994H167.58V45.3299V55.2399C182.51 63.7299 192.62 79.7799 192.62 98.1499C192.62 116.11 182.97 131.85 168.59 140.48C161.19 144.92 152.53 147.48 143.29 147.48C131.62 147.48 120.9 143.4 112.44 136.6C103.97 129.79 97.79 120.25 95.25 109.32C92.59 110 89.67 110.36 86.46 110.49C85.55 110.53 84.63 110.55 83.67 110.55C63.4 110.55 50.52 96.3399 50.52 74.1799C50.52 54.0999 62.27 37.2399 83.67 37.2399C96 37.2399 105.15 42.2099 110.98 51.8299C119.75 45.6799 130.28 41.8799 141.66 41.3799C131.21 17.6499 106.53 6.17993 83.68 6.17993C49.96 6.17993 15.49 28.9099 15.49 74.3699C15.49 119.64 49.97 142.18 83.68 142.18C90.13 142.18 96.6 141.43 102.82 139.85C113.3 150.02 127.57 156.3 143.29 156.3C158.69 156.3 172.7 150.27 183.11 140.47H202.25V87.4399H243.36V140.48H278.03V7.87994H243.36Z" fill="white"/>
<path d="M76.6799 65.27V94.44H93.9899C94.7599 83.28 99.2499 73.16 106.22 65.27H76.6799Z" fill="white"/>
<path d="M103.58 78.26C101.7 82.01 100.33 86.09 99.56 90.44C99.32 91.78 99.15 93.12 99.04 94.46C98.66 98.98 99.01 103.4 99.94 107.65C100.94 112.2 102.61 116.55 104.92 120.51L136.03 83.99L103.58 78.26Z" fill="white"/>
<path d="M146.87 70.3101L145.07 65.2801L140.97 53.79C130.58 54.32 120.9 58.5101 113.45 65.2801C109.94 68.4601 106.92 72.2101 104.55 76.4301L146.79 83.89L152.05 84.82L146.87 70.3101Z" fill="white"/>
<path d="M181.68 75.8201L167.59 92.3501L150.56 112.32L167.59 115.32L183.01 118.04C184.89 114.29 186.26 110.21 187.03 105.86C188.93 95.1101 186.78 84.5701 181.68 75.8201Z" fill="white"/>
<path d="M167.59 60.9901C162.71 57.7901 157.13 55.4901 151.01 54.4101C148.33 53.9401 145.67 53.7201 143.04 53.7301L159.24 99.0901L167.58 89.3101L180.59 74.0501C177.25 68.8701 172.82 64.4201 167.59 60.9901Z" fill="white"/>
<path d="M135.25 118.64L127.36 97.2002L106.01 122.26C109.01 126.89 112.89 130.93 117.43 134.19C122.67 137.96 128.8 140.68 135.58 141.88C138.43 142.38 141.26 142.6 144.06 142.55L135.25 118.64Z" fill="white"/>
<path d="M167.59 117.33L139.19 112.32L134.73 111.53L136.62 116.66L146.13 142.48C153.91 141.99 161.28 139.44 167.6 135.31C173.52 131.44 178.52 126.18 182.05 119.88L167.59 117.33Z" fill="white"/>
<path d="M0 38.4H3.55V3.54999H49.2V0H0V38.4Z" fill="white"/>
<path d="M289.96 95.4199V158.93H203.29V162.48H293.51V95.4199H289.96Z" fill="white"/>
</svg>
