<svg width="209" height="51" viewBox="0 0 209 51" fill="none" xmlns="http://www.w3.org/2000/svg">
<path d="M106.459 5.31798C110.064 5.31798 113.671 7.05643 114.71 11.2859H110.897C109.989 9.52261 108.537 8.81977 106.462 8.81977C103.063 8.81977 101.144 11.3886 101.144 14.6322C101.144 18.0843 103.219 20.4167 106.462 20.4167C108.953 20.4167 110.769 19.6641 111.547 16.9398H106.593V13.6713H115.102C115.204 15.4097 115.154 17.0953 114.557 18.756C113.183 22.4133 109.939 23.9434 106.462 23.9434C101.664 23.9434 97.2008 20.65 97.2008 14.6291C97.1977 8.6114 101.685 5.31798 106.459 5.31798Z" fill="white"/>
<path d="M121.011 20.6997L119.611 23.7101H115.565V23.1907L123.918 5.39259H125.71L134.01 23.1907V23.7101H129.989L128.562 20.6997H121.011ZM122.283 17.4311H127.314L124.799 11.4383L122.283 17.4311Z" fill="white"/>
<path d="M147.601 14.2932C149.286 14.993 150.194 16.4733 150.194 18.3393C150.194 21.5301 148.067 23.7101 144.435 23.7101H136.004V5.5761H143.71C147.031 5.5761 149.417 7.54779 149.417 10.9469C149.417 12.2687 148.742 13.5935 147.601 14.2932ZM139.869 8.8975V13.0213H143.424C144.749 13.0213 145.579 12.2936 145.604 11.0745C145.629 9.75273 144.774 8.89439 143.424 8.89439H139.869V8.8975ZM139.869 16.1872V20.339H144.177C145.498 20.339 146.279 19.5615 146.357 18.3424C146.381 17.6146 146.098 16.9429 145.554 16.5511C145.113 16.2401 144.593 16.1872 143.996 16.1872H139.869Z" fill="white"/>
<path d="M168.456 23.1379V23.6821H164.304L160.569 17.6893H157.325V23.6821H153.435V5.52322C156.028 5.52322 158.597 5.49834 161.191 5.52322C165.343 5.52322 167.601 8.53364 167.601 11.7493C167.601 14.0569 166.434 16.0814 164.357 17.0922L168.456 23.1379ZM161.166 14.5016C162.802 14.5016 163.866 13.2296 163.838 11.6747C163.838 10.1446 162.827 8.92549 161.166 8.92549H157.276V14.5016H161.166Z" fill="white"/>
<path d="M179.428 20.6219V23.7101H170.399V20.6219H172.968V8.55851H170.608V5.5481H179.219V8.55851H176.859V20.6219H179.428Z" fill="white"/>
<path d="M193.824 8.94726H186.612V12.6325H193.357V16.0317H186.612V20.1835H194.032V23.7101H182.693V5.55121H193.824V8.94726Z" fill="white"/>
<path d="M201.424 20.2332H209V23.7101H197.534V5.55121H201.424V20.2332Z" fill="white"/>
<path d="M104.895 30.8879V28.6114H102.102V30.8879H101.773V26.2541H102.102V28.3004H104.895V26.2541H105.234V30.8879H104.895Z" fill="white"/>
<path d="M119.157 26.5433H116.812V28.3439H119.058V28.6425H116.812V30.5831H119.176V30.8879H116.479V26.2541H119.154V26.5433H119.157Z" fill="white"/>
<path d="M130.493 26.9724L130.527 28.5554V30.8847H130.188V26.2447H130.319L133.491 30.1446L133.457 28.4621V26.2447H133.796V30.8847H133.684L130.493 26.9724Z" fill="white"/>
<path d="M148.577 30.835V30.8879H148.207L146.789 29.1214H145.386V30.8879H145.047V26.2541H146.829C147.731 26.2541 148.384 26.8418 148.384 27.6971C148.384 28.4652 147.849 28.9752 147.134 29.081L148.577 30.835ZM146.829 28.826C147.504 28.826 148.061 28.3968 148.061 27.6877C148.061 26.9911 147.517 26.5495 146.829 26.5495H145.38V28.826H146.829Z" fill="white"/>
<path d="M161.057 30.6142V30.8847H158.964V30.6142H159.844V26.5215H159.023V26.2509H160.995V26.5215H160.174V30.6142H161.057Z" fill="white"/>
<path d="M176.078 30.9656H175.761L175.351 30.4027C174.946 30.7479 174.418 30.9469 173.808 30.9376C172.477 30.9376 171.479 29.9704 171.479 28.5554C171.479 27.159 172.446 26.1732 173.824 26.1732C175.155 26.1732 176.168 27.1342 176.168 28.5554C176.168 29.224 175.951 29.7931 175.581 30.1974L176.084 30.9127V30.9656H176.078ZM173.824 30.6297C174.984 30.6297 175.836 29.7963 175.836 28.5585C175.836 27.3394 174.98 26.4997 173.824 26.4997C172.679 26.4997 171.818 27.3394 171.818 28.5585C171.815 29.7932 172.676 30.6297 173.824 30.6297Z" fill="white"/>
<path d="M187.066 29.2987V26.2541H187.395V29.2925C187.395 30.1477 187.971 30.636 188.804 30.636C189.631 30.636 190.2 30.1446 190.2 29.2925V26.2541H190.524V29.2987C190.524 30.3312 189.815 30.9469 188.804 30.9469C187.787 30.9469 187.066 30.3312 187.066 29.2987Z" fill="white"/>
<path d="M204.407 26.5433H202.062V28.3439H204.307V28.6425H202.062V30.5831H204.425V30.8879H201.732V26.2541H204.407V26.5433Z" fill="white"/>
<path d="M208.064 45.2122H98.1309C97.6146 45.2122 97.1979 44.7955 97.1979 44.2792V34.1159C97.1979 33.5997 97.6146 33.183 98.1309 33.183H208.064C208.58 33.183 208.997 33.5997 208.997 34.1159V44.2792C208.997 44.7955 208.58 45.2122 208.064 45.2122Z" fill="#E1BF23"/>
<path d="M104.739 39.7512H101.707V42.6838H100.871V35.7269H105.007V36.4608H101.707V39.0141H104.739V39.7512Z" fill="black"/>
<path d="M122.503 36.4702V35.7238H127.604V36.4702H125.458V42.6838H124.652V36.4702H122.503Z" fill="black"/>
<path d="M136.097 42.7927C134.138 42.7927 132.58 41.4212 132.58 39.2038C132.58 36.9771 134.159 35.6056 136.109 35.6056C138.059 35.6056 139.639 36.9958 139.639 39.2038C139.636 41.3123 138.196 42.7927 136.097 42.7927ZM136.097 42.0276C137.627 42.0276 138.799 40.8956 138.799 39.2038C138.799 37.5151 137.646 36.3613 136.106 36.3613C134.595 36.3613 133.413 37.4933 133.413 39.2038C133.413 40.8956 134.576 42.0276 136.097 42.0276Z" fill="black"/>
<path d="M148.667 35.6274C150.029 35.6274 151.36 36.2649 151.759 37.7141H150.944C150.577 36.7096 149.712 36.3831 148.667 36.3831C147.047 36.3831 146.033 37.6146 146.033 39.1976C146.033 40.8178 147.047 42.0121 148.667 42.0121C150.098 42.0121 151.121 41.247 151.252 39.7356H148.776V39.0296H152.017C152.048 39.6672 151.976 40.2829 151.749 40.8396C151.233 42.1209 150.07 42.7864 148.667 42.7864C146.699 42.7864 145.2 41.3559 145.2 39.1976C145.2 37.0393 146.73 35.6274 148.667 35.6274Z" fill="black"/>
<path d="M163.374 42.5625V42.6807H162.5L160.572 40.1275H158.753V42.6807H157.916V35.7145H160.69C162.121 35.7145 163.066 36.6879 163.066 37.9505C163.066 39.0234 162.379 39.7791 161.406 40.0186L163.374 42.5625ZM160.69 39.4433C161.574 39.4433 162.261 38.8462 162.261 37.9412C162.261 37.0455 161.595 36.4515 160.69 36.4515H158.743V39.4433H160.69Z" fill="black"/>
<path d="M170.011 40.964L169.196 42.6838H168.331V42.575L171.572 35.6958H171.948L175.158 42.575V42.6838H174.302L173.488 40.964H170.011ZM170.288 40.2487H173.211L171.749 36.9989L170.288 40.2487Z" fill="black"/>
<path d="M184.618 39.7512H181.586V42.6838H180.749V35.7269H184.886V36.4608H181.586V39.0141H184.618V39.7512Z" fill="black"/>
<path d="M193.469 42.0183V42.6838H190.228V42.0183H191.432V36.3831H190.309V35.7269H193.391V36.3831H192.269V42.0183H193.469Z" fill="black"/>
<path d="M200.177 40.964L199.362 42.6838H198.498V42.575L201.738 35.6958H202.115L205.324 42.575V42.6838H204.469L203.654 40.964H200.177ZM200.454 40.2487H203.377L201.916 36.9989L200.454 40.2487Z" fill="black"/>
<path d="M111.93 38.1464C111.83 38.3423 111.759 38.5569 111.718 38.7839C111.706 38.8555 111.696 38.9239 111.69 38.9954C111.672 39.2318 111.69 39.465 111.737 39.6858C111.79 39.9253 111.877 40.1523 111.998 40.3607L113.628 38.4481L111.93 38.1464Z" fill="black"/>
<path d="M114.197 37.7328L114.103 37.4684L113.889 36.8682C113.345 36.8962 112.838 37.117 112.446 37.4684C112.262 37.6364 112.104 37.8323 111.979 38.0531L114.191 38.4449L114.467 38.4947L114.197 37.7328Z" fill="black"/>
<path d="M116.019 38.0189L115.282 38.8835L114.39 39.9284L115.282 40.087L116.091 40.2301C116.19 40.0341 116.262 39.8196 116.302 39.5925C116.399 39.0296 116.287 38.4792 116.019 38.0189Z" fill="black"/>
<path d="M115.282 37.2445C115.027 37.0766 114.735 36.9553 114.414 36.8993C114.275 36.8744 114.135 36.862 113.998 36.8651L114.847 39.2411L115.282 38.728L115.963 37.9287C115.786 37.655 115.556 37.4218 115.282 37.2445Z" fill="black"/>
<path d="M113.587 40.2643L113.174 39.1416L112.054 40.454C112.213 40.6966 112.415 40.908 112.651 41.0791C112.925 41.2781 113.245 41.4181 113.603 41.4803C113.752 41.5051 113.901 41.5176 114.048 41.5145L113.587 40.2643Z" fill="black"/>
<path d="M115.282 40.1927L113.796 39.9315L113.562 39.8911L113.662 40.1585L114.159 41.5113C114.567 41.4865 114.952 41.3527 115.285 41.135C115.596 40.9329 115.857 40.6561 116.041 40.3265L115.282 40.1927Z" fill="black"/>
<path d="M114.01 42.8891C111.97 42.8891 110.309 41.2284 110.309 39.1914C110.309 37.1512 111.97 35.4905 114.01 35.4905C116.05 35.4905 117.711 37.1512 117.711 39.1914C117.708 41.2284 116.047 42.8891 114.01 42.8891ZM114.01 35.9944C112.25 35.9944 110.816 37.428 110.816 39.1883C110.816 40.9485 112.25 42.3822 114.01 42.3822C115.77 42.3822 117.204 40.9485 117.204 39.1883C117.204 37.428 115.77 35.9944 114.01 35.9944Z" fill="black"/>
<path d="M114.01 42.9357C111.945 42.9357 110.266 41.2564 110.266 39.1914C110.266 37.1264 111.945 35.4439 114.01 35.4439C116.075 35.4439 117.758 37.1233 117.758 39.1914C117.758 41.2595 116.075 42.9357 114.01 42.9357ZM114.01 35.5372C111.995 35.5372 110.356 37.1761 110.356 39.1914C110.356 41.2066 111.995 42.8424 114.01 42.8424C116.025 42.8424 117.664 41.2035 117.664 39.1914C117.661 37.1761 116.022 35.5372 114.01 35.5372ZM114.01 42.4319C112.222 42.4319 110.77 40.9765 110.77 39.1914C110.77 37.4063 112.225 35.9508 114.01 35.9508C115.795 35.9508 117.251 37.4031 117.251 39.1882C117.251 40.9733 115.795 42.4319 114.01 42.4319ZM114.01 36.041C112.275 36.041 110.863 37.4529 110.863 39.1882C110.863 40.9236 112.275 42.3355 114.01 42.3355C115.746 42.3355 117.157 40.9236 117.157 39.1882C117.157 37.4529 115.746 36.041 114.01 36.041Z" fill="black"/>
<path d="M32.2127 24.3383C31.628 25.5046 31.202 26.7734 30.9625 28.1263C30.8879 28.543 30.835 28.9597 30.8008 29.3764C30.6826 30.7821 30.7915 32.1567 31.0807 33.4784C31.3917 34.8935 31.911 36.2463 32.6294 37.4778L42.3044 26.1203L32.2127 24.3383Z" fill="white"/>
<path d="M45.6756 21.8659L45.1158 20.3016L43.8407 16.7283C40.6095 16.8931 37.5991 18.1962 35.2822 20.3016C34.1906 21.2906 33.2514 22.4568 32.5143 23.7692L45.6507 26.0892L47.2865 26.3784L45.6756 21.8659Z" fill="white"/>
<path d="M56.5013 23.5795L52.1194 28.7202L46.8232 34.9308L52.1194 35.8638L56.9149 36.7097C57.4996 35.5434 57.9256 34.2746 58.1651 32.9218C58.756 29.5786 58.0874 26.3007 56.5013 23.5795Z" fill="white"/>
<path d="M52.1194 18.9675C50.6017 17.9723 48.8664 17.257 46.9631 16.9211C46.1297 16.775 45.3024 16.7066 44.4845 16.7097L49.5226 30.8163L52.1163 27.7748L56.1623 23.0291C55.1236 21.4181 53.7459 20.0342 52.1194 18.9675Z" fill="white"/>
<path d="M42.0619 36.8963L39.6081 30.2286L32.9684 38.022C33.9014 39.4619 35.1081 40.7184 36.52 41.7322C38.1496 42.9047 40.056 43.7506 42.1645 44.1237C43.0508 44.2792 43.9309 44.3477 44.8017 44.3321L42.0619 36.8963Z" fill="white"/>
<path d="M52.1194 36.4889L43.2872 34.9308L41.9001 34.6851L42.4879 36.2805L45.4455 44.3103C47.865 44.1579 50.157 43.3649 52.1225 42.0805C53.9636 40.877 55.5185 39.2412 56.6164 37.2819L52.1194 36.4889Z" fill="white"/>
<path d="M75.6833 2.45063V17.3565H62.8984V2.45063H52.1163V14.0973V17.1793C56.7594 19.8196 59.9035 24.811 59.9035 30.524C59.9035 36.1094 56.9025 41.0045 52.4304 43.6883C50.129 45.0692 47.4358 45.8653 44.5622 45.8653C40.9329 45.8653 37.5991 44.5964 34.9681 42.4817C32.334 40.3638 30.412 37.3969 29.6221 33.9978C28.7949 34.2093 27.8868 34.3212 26.8885 34.3617C26.6055 34.3741 26.3194 34.3803 26.0208 34.3803C19.717 34.3803 15.7114 29.9611 15.7114 23.0695C15.7114 16.8247 19.3656 11.5814 26.0208 11.5814C29.8554 11.5814 32.701 13.127 34.514 16.1188C37.2415 14.2062 40.5162 13.0244 44.0553 12.8689C40.8054 5.48903 33.1301 1.92194 26.0239 1.92194C15.5372 1.92194 4.81729 8.99082 4.81729 23.1286C4.81729 37.2072 15.5403 44.217 26.0239 44.217C28.0298 44.217 30.042 43.9838 31.9763 43.4924C35.2355 46.6552 39.6734 48.6083 44.5622 48.6083C49.3515 48.6083 53.7086 46.733 56.946 43.6852H62.8984V27.1933H75.6833V43.6883H86.4655V2.45063H75.6833Z" fill="white"/>
<path d="M23.847 20.2985V29.3702H29.2303C29.4697 25.8995 30.8661 22.7523 33.0337 20.2985H23.847Z" fill="white"/>
<path d="M0 11.9421H1.10403V1.10402H15.3009V0H0V11.9421Z" fill="white"/>
<path d="M90.1756 29.675V49.4262H63.2218V50.5302H91.2797V29.675H90.1756Z" fill="white"/>
</svg>
