<svg width="75" height="75" viewBox="0 0 75 75" fill="none" xmlns="http://www.w3.org/2000/svg">
<path d="M75 37.5C75 58.2107 58.2107 75 37.5 75C16.7893 75 0 58.2107 0 37.5C0 16.7893 16.7893 0 37.5 0C58.2107 0 75 16.7893 75 37.5Z" fill="#E1BF23"/>
<path fill-rule="evenodd" clip-rule="evenodd" d="M0 37.5C0 16.7894 16.7894 0 37.5 0C58.2106 0 75 16.7894 75 37.5C75 58.2106 58.2106 75 37.5 75C16.7894 75 0 58.2106 0 37.5ZM37.5019 17.5C32.0702 17.5 31.3884 17.5237 29.2552 17.6208C27.1259 17.7183 25.6727 18.0555 24.4009 18.55C23.0855 19.0608 21.9697 19.7442 20.858 20.8562C19.7455 21.968 19.062 23.0838 18.5495 24.3988C18.0538 25.6709 17.7162 27.1247 17.6205 29.253C17.525 31.3864 17.5 32.0684 17.5 37.5002C17.5 42.9319 17.5242 43.6116 17.6208 45.7448C17.7187 47.8741 18.0558 49.3273 18.55 50.5991C19.0612 51.9145 19.7445 53.0303 20.8567 54.142C21.968 55.2545 23.0837 55.9395 24.3984 56.4505C25.6709 56.945 27.1247 57.282 29.2534 57.3795C31.3869 57.4767 32.0681 57.5005 37.4994 57.5005C42.9316 57.5005 43.6111 57.4767 45.7445 57.3795C47.8736 57.282 49.3286 56.945 50.6012 56.4505C51.9162 55.9395 53.0303 55.2545 54.1416 54.142C55.2541 53.0303 55.9375 51.9145 56.45 50.5995C56.9417 49.3273 57.2792 47.8736 57.3792 45.7453C57.475 43.6119 57.5 42.9319 57.5 37.5002C57.5 32.0684 57.475 31.3869 57.3792 29.2534C57.2792 27.1242 56.9417 25.6709 56.45 24.3992C55.9375 23.0838 55.2541 21.968 54.1416 20.8562C53.0291 19.7437 51.9166 19.0605 50.6 18.55C49.3248 18.0555 47.8708 17.7183 45.7416 17.6208C43.6081 17.5237 42.9291 17.5 37.4956 17.5H37.5019Z" fill="#0B2447"/>
<path fill-rule="evenodd" clip-rule="evenodd" d="M35.7077 21.1041C36.2402 21.1033 36.8344 21.1041 37.5019 21.1041C42.8419 21.1041 43.4748 21.1233 45.5836 21.2191C47.5336 21.3083 48.592 21.6341 49.297 21.9079C50.2303 22.2704 50.8958 22.7037 51.5953 23.4037C52.2953 24.1037 52.7288 24.7704 53.092 25.7038C53.3658 26.4079 53.692 27.4663 53.7808 29.4163C53.8766 31.5246 53.8975 32.158 53.8975 37.4955C53.8975 42.833 53.8766 43.4665 53.7808 45.5747C53.6916 47.5247 53.3658 48.5832 53.092 49.2872C52.7295 50.2207 52.2953 50.8852 51.5953 51.5849C50.8953 52.2849 50.2308 52.7182 49.297 53.0807C48.5928 53.3557 47.5336 53.6807 45.5836 53.7699C43.4753 53.8657 42.8419 53.8865 37.5019 53.8865C32.1614 53.8865 31.5284 53.8657 29.4202 53.7699C27.4702 53.6799 26.4117 53.354 25.7064 53.0802C24.773 52.7177 24.1063 52.2844 23.4063 51.5844C22.7063 50.8844 22.273 50.2194 21.9097 49.2857C21.6359 48.5815 21.3097 47.5232 21.2209 45.5732C21.125 43.4647 21.1059 42.8315 21.1059 37.4905C21.1059 32.1496 21.125 31.5196 21.2209 29.4113C21.31 27.4613 21.6359 26.4029 21.9097 25.6979C22.2722 24.7646 22.7063 24.0979 23.4063 23.3979C24.1063 22.6979 24.773 22.2646 25.7064 21.9012C26.4114 21.6262 27.4702 21.3012 29.4202 21.2116C31.2652 21.1283 31.9802 21.1033 35.7077 21.0991V21.1041ZM48.1778 24.4249C46.8528 24.4249 45.7778 25.4988 45.7778 26.8241C45.7778 28.1491 46.8528 29.2241 48.1778 29.2241C49.5028 29.2241 50.5778 28.1491 50.5778 26.8241C50.5778 25.4991 49.5028 24.4249 48.1778 24.4249ZM37.5019 27.2291C31.8297 27.2291 27.2309 31.828 27.2309 37.5001C27.2309 43.1722 31.8297 47.769 37.5019 47.769C43.1741 47.769 47.7711 43.1722 47.7711 37.5001C47.7711 31.828 43.1741 27.2291 37.5019 27.2291Z" fill="#0B2447"/>
<path fill-rule="evenodd" clip-rule="evenodd" d="M37.5019 30.8335C41.1836 30.8335 44.1686 33.8182 44.1686 37.5002C44.1686 41.1819 41.1836 44.1669 37.5019 44.1669C33.8197 44.1669 30.8352 41.1819 30.8352 37.5002C30.8352 33.8182 33.8197 30.8335 37.5019 30.8335Z" fill="#0B2447"/>
</svg>
